<svg width="42" height="36" viewBox="0 0 42 36" fill="none" xmlns="http://www.w3.org/2000/svg">
<path d="M15.12 21L11.5325 17.94M26.845 22.5L22.54 18.81M26.25 13.5C26.25 13.5 29.505 10.5 32.375 10.5C36.1725 10.5 38.5 13.5 38.5 13.5C38.5 13.5 36.1725 16.5 32.375 16.5C28.5775 16.5 26.25 13.5 26.25 13.5ZM26.25 13.5C26.25 13.5 22.75 11.505 22.75 8.25C22.75 4.995 26.25 3 26.25 3C26.25 3 29.75 4.995 29.75 8.25C29.75 10.74 26.25 13.5 26.25 13.5ZM3.97247 32.55C3.97247 32.55 21.245 27.3 26.25 23.01C26.9819 22.3836 27.5628 21.6397 27.9593 20.8209C28.3559 20.0021 28.5604 19.1244 28.5613 18.2378C28.5621 17.3512 28.3592 16.4732 27.9641 15.6539C27.569 14.8345 26.9895 14.0899 26.2587 13.4625C25.5279 12.8351 24.6601 12.3372 23.7048 11.9973C22.7495 11.6574 21.7255 11.4821 20.6912 11.4814C19.6568 11.4807 18.6325 11.6546 17.6766 11.9933C16.7207 12.3319 15.8519 12.8286 15.12 13.455C10.0975 17.76 3.97247 32.55 3.97247 32.55Z" stroke="black" stroke-width="2" stroke-linecap="round" stroke-linejoin="round"/>
</svg>
