<svg width="42" height="36" viewBox="0 0 42 36" fill="none" xmlns="http://www.w3.org/2000/svg">
<path d="M17.5 3V15L22.75 10.5L28 15V3M7 29.25V6.75C7 5.75544 7.46094 4.80161 8.28141 4.09835C9.10188 3.39509 10.2147 3 11.375 3H33.25C33.7141 3 34.1592 3.15804 34.4874 3.43934C34.8156 3.72064 35 4.10218 35 4.5V31.5C35 31.8978 34.8156 32.2794 34.4874 32.5607C34.1592 32.842 33.7141 33 33.25 33H11.375C10.2147 33 9.10188 32.6049 8.28141 31.9017C7.46094 31.1984 7 30.2446 7 29.25ZM7 29.25C7 28.2554 7.46094 27.3016 8.28141 26.5983C9.10188 25.8951 10.2147 25.5 11.375 25.5H35" stroke="black" stroke-width="2" stroke-linecap="round" stroke-linejoin="round"/>
</svg>
