<svg width="42" height="36" viewBox="0 0 42 36" fill="none" xmlns="http://www.w3.org/2000/svg">
<path d="M26.25 31.5V19.5C26.25 19.1022 26.0656 18.7206 25.7374 18.4393C25.4092 18.158 24.9641 18 24.5 18H17.5C17.0359 18 16.5908 18.158 16.2626 18.4393C15.9344 18.7206 15.75 19.1022 15.75 19.5V31.5M5.25 15C5.24988 14.5636 5.36083 14.1324 5.57513 13.7366C5.78942 13.3407 6.1019 12.9897 6.49075 12.708L18.7407 3.708C19.3725 3.25037 20.1729 2.99928 21 2.99928C21.8271 2.99928 22.6275 3.25037 23.2593 3.708L35.5093 12.708C35.8981 12.9897 36.2106 13.3407 36.4249 13.7366C36.6392 14.1324 36.7501 14.5636 36.75 15V28.5C36.75 29.2957 36.3813 30.0587 35.7249 30.6213C35.0685 31.1839 34.1783 31.5 33.25 31.5H8.75C7.82174 31.5 6.9315 31.1839 6.27513 30.6213C5.61875 30.0587 5.25 29.2957 5.25 28.5V15Z" stroke="black" stroke-width="2" stroke-linecap="round" stroke-linejoin="round"/>
</svg>
